<?xml version="1.0" encoding="UTF-8" standalone="no"?>
<!-- Created with Inkscape (http://www.inkscape.org/) -->

<svg
   xmlns:dc="http://purl.org/dc/elements/1.1/"
   xmlns:cc="http://creativecommons.org/ns#"
   xmlns:rdf="http://www.w3.org/1999/02/22-rdf-syntax-ns#"
   xmlns:svg="http://www.w3.org/2000/svg"
   xmlns="http://www.w3.org/2000/svg"
   xmlns:sodipodi="http://sodipodi.sourceforge.net/DTD/sodipodi-0.dtd"
   xmlns:inkscape="http://www.inkscape.org/namespaces/inkscape"
   width="64"
   height="64"
   id="svg6288"
   version="1.1"
   inkscape:version="0.48.5 r10040"
   sodipodi:docname="split.svg">
  <title
     id="title3037">Languages</title>
  <defs
     id="defs6290" />
  <sodipodi:namedview
     id="base"
     pagecolor="#ffffff"
     bordercolor="#666666"
     borderopacity="1.0"
     inkscape:pageopacity="0.0"
     inkscape:pageshadow="2"
     inkscape:zoom="0.98994949"
     inkscape:cx="-614.65352"
     inkscape:cy="130.54731"
     inkscape:document-units="px"
     inkscape:current-layer="layer1"
     showgrid="false"
     inkscape:window-width="1920"
     inkscape:window-height="1138"
     inkscape:window-x="-8"
     inkscape:window-y="-8"
     inkscape:window-maximized="1" />
  <metadata
     id="metadata6293">
    <rdf:RDF>
      <cc:Work
         rdf:about="">
        <dc:format>image/svg+xml</dc:format>
        <dc:type
           rdf:resource="http://purl.org/dc/dcmitype/StillImage" />
        <dc:title>Languages</dc:title>
        <dc:creator>
          <cc:Agent>
            <dc:title>Nastya Bekassova</dc:title>
          </cc:Agent>
        </dc:creator>
        <dc:rights>
          <cc:Agent>
            <dc:title>Nastya Bekassova</dc:title>
          </cc:Agent>
        </dc:rights>
        <dc:description>More Air for YAGF icon set</dc:description>
        <dc:source>symmetrica.net/~bekassova/</dc:source>
        <cc:license
           rdf:resource="http://www.gnu.org/copyleft/gpl.html" />
      </cc:Work>
    </rdf:RDF>
  </metadata>
  <g
     inkscape:label="Layer 1"
     inkscape:groupmode="layer"
     id="layer1"
     transform="translate(0,-988.36218)">
    <path
       style="font-size:medium;font-style:normal;font-variant:normal;font-weight:normal;font-stretch:normal;text-indent:0;text-align:start;text-decoration:none;line-height:normal;letter-spacing:normal;word-spacing:normal;text-transform:none;direction:ltr;block-progression:tb;writing-mode:lr-tb;text-anchor:start;baseline-shift:baseline;color:#000000;fill:#000092;fill-opacity:1;fill-rule:nonzero;stroke:none;stroke-width:1;marker:none;visibility:visible;display:inline;overflow:visible;enable-background:accumulate;font-family:Sans;-inkscape-font-specification:Sans"
       d="m 21.051579,1004.982 c -1.174502,-0.1986 -2.103913,0.6037 -1.749998,2.1607 0,10.0187 0,19.9813 0,30 1.666666,0 2.333333,0 4,0 -0.008,-10.2468 0.17667,-20.905 0.148745,-31.1513 -0.08919,-1.2461 -1.556565,-0.9751 -2.398747,-1.0094 z m 0.446429,0.8214 c 1.243395,-0.5729 0.937569,0.7511 0.964286,1.4936 0,9.4783 -0.160713,19.3674 -0.160713,28.8457 -1,0 -1,0 -2,0 0,-9.8333 0,-20.1666 0,-30 0.109856,-0.9544 0.616524,-0.2469 1.196427,-0.3393 z m 9.464286,-0.071 c -2.377787,0 -4.593797,1.0988 -6.5,2.4375 0,6.6042 0,13.2084 0,19.8126 2.279502,-1.6709 5.059309,-3.0493 7.965234,-2.5328 1.900356,0.176 3.615302,1.0492 5.199628,2.055 3.041048,1.5227 6.858513,1.7396 9.839154,-0.056 0.580828,-0.5634 2.070249,-0.7047 1.995984,-1.6751 0,-6.4616 0,-12.9234 0,-19.385 -2.241289,1.6093 -4.893665,3.1163 -7.761113,2.6505 -1.971996,-0.1502 -3.766184,-1.0285 -5.403749,-2.079 -1.644816,-0.8321 -3.496639,-1.2256 -5.335138,-1.2278 z m 0,1 c 2.325381,-0.036 4.597659,0.7419 6.498053,2.0603 2.908672,1.4964 6.598127,1.8893 9.529456,0.2324 0.918014,-0.5941 1.753801,-1.2301 1.472491,0.2099 0,5.4783 0,10.9567 0,16.435 -2.066642,1.4496 -4.61143,2.4593 -7.167403,1.9429 -1.828784,-0.1996 -3.466029,-1.0659 -4.997459,-2.0277 -2.981701,-1.4821 -6.715628,-1.7493 -9.671339,-0.052 -1.058858,0.9261 -1.316039,0.5697 -1.163799,-0.5741 0,-5.4087 0,-10.8175 0,-16.2263 1.63719,-1.0754 3.497528,-1.9961 5.5,-2 z"
       id="path5437"
       inkscape:connector-curvature="0"
       sodipodi:nodetypes="cccccccccccccccccccccccccccccccccc" />
  </g>
</svg>
