<?xml version="1.0" encoding="UTF-8" standalone="no"?>
<!-- Created with Inkscape (http://www.inkscape.org/) -->

<svg
   xmlns:dc="http://purl.org/dc/elements/1.1/"
   xmlns:cc="http://creativecommons.org/ns#"
   xmlns:rdf="http://www.w3.org/1999/02/22-rdf-syntax-ns#"
   xmlns:svg="http://www.w3.org/2000/svg"
   xmlns="http://www.w3.org/2000/svg"
   xmlns:sodipodi="http://sodipodi.sourceforge.net/DTD/sodipodi-0.dtd"
   xmlns:inkscape="http://www.inkscape.org/namespaces/inkscape"
   width="64"
   height="64"
   id="svg6288"
   version="1.1"
   inkscape:version="0.48.5 r10040"
   sodipodi:docname="Spellcheck.svg">
  <title
     id="title3057">Spellcheck</title>
  <defs
     id="defs6290" />
  <sodipodi:namedview
     id="base"
     pagecolor="#ffffff"
     bordercolor="#666666"
     borderopacity="1.0"
     inkscape:pageopacity="0.0"
     inkscape:pageshadow="2"
     inkscape:zoom="3.959798"
     inkscape:cx="82.228728"
     inkscape:cy="25.056897"
     inkscape:document-units="px"
     inkscape:current-layer="layer1"
     showgrid="false"
     inkscape:window-width="1920"
     inkscape:window-height="1138"
     inkscape:window-x="-8"
     inkscape:window-y="-8"
     inkscape:window-maximized="1" />
  <metadata
     id="metadata6293">
    <rdf:RDF>
      <cc:Work
         rdf:about="">
        <dc:format>image/svg+xml</dc:format>
        <dc:type
           rdf:resource="http://purl.org/dc/dcmitype/StillImage" />
        <dc:title>Spellcheck</dc:title>
        <dc:creator>
          <cc:Agent>
            <dc:title>Nastya Bekassova</dc:title>
          </cc:Agent>
        </dc:creator>
        <dc:rights>
          <cc:Agent>
            <dc:title>Nastya Bekassova</dc:title>
          </cc:Agent>
        </dc:rights>
        <dc:description>More Air for YAGF icon set</dc:description>
        <dc:source>symmetrica.net/~bekassova/</dc:source>
        <cc:license
           rdf:resource="http://www.gnu.org/copyleft/gpl.html" />
      </cc:Work>
    </rdf:RDF>
  </metadata>
  <g
     inkscape:label="Layer 1"
     inkscape:groupmode="layer"
     id="layer1"
     transform="translate(0,-988.36218)">
    <path
       style="font-size:medium;font-style:normal;font-variant:normal;font-weight:normal;font-stretch:normal;text-indent:0;text-align:start;text-decoration:none;line-height:normal;letter-spacing:normal;word-spacing:normal;text-transform:none;direction:ltr;block-progression:tb;writing-mode:lr-tb;text-anchor:start;baseline-shift:baseline;color:#000000;fill:#000092;fill-opacity:1;fill-rule:nonzero;stroke:none;stroke-width:1;marker:none;visibility:visible;display:inline;overflow:visible;enable-background:accumulate;font-family:Sans;-inkscape-font-specification:Sans"
       d="m 19.118813,1003.6951 c -1.723449,-0.047 -2.977205,1.5356 -2.72903,3.0297 0,3.9901 0,7.9802 0,11.9702 1.091613,0 2.183225,0 3.274837,0 0,-2 0.06893,-3.9368 0.06893,-5.9368 1.091613,0 2.252143,0.063 3.343756,0.063 0,2 0,3.9999 0,5.9999 1.091612,0 2.527817,-0.063 3.61943,-0.063 -0.0094,-4.2512 0.01879,-8.5034 -0.0142,-12.7542 -0.121876,-1.5272 -1.832356,-2.4543 -3.389466,-2.2457 -1.230609,0 -2.943647,-0.063 -4.174254,-0.063 z m 8.669525,0.063 c 0,5 0,10 0,14.9999 2.546711,-0.03 5.102101,0.063 7.642976,-0.051 1.543762,-0.2483 2.377936,-1.7278 2.181538,-3.0669 -0.09016,-1.3448 0.256695,-2.7766 -0.375242,-4.0382 -1.408368,-0.3689 0.807884,-0.8141 0.359648,-1.9046 -0.0208,-1.3911 0.130995,-2.8056 -0.10784,-4.1796 -0.404382,-1.3401 -1.980799,-1.9141 -3.376593,-1.7595 -2.108161,0 -4.216321,0 -6.324482,0 z m 13.645159,0 c -1.72345,-0.047 -2.977205,1.5356 -2.729032,3.0297 0.0094,3.2414 -0.01885,6.4837 0.01419,9.7245 0.121882,1.5272 1.832362,2.4544 3.389471,2.2457 2.140286,0 4.694082,-0.063 6.834368,-0.063 0,-1 0,-2 0,-3 -2.183225,0 -4.366451,0.063 -6.549676,0.063 0,-1.4999 -0.41351,-2.9999 -0.41351,-4.4999 0,-1.5 0.41351,-3 0.41351,-4.5 2.183225,0 4.297533,0 6.480758,0 0,-1 0,-2 0,-3 -2.365161,0 -5.074914,0 -7.440081,0 z m -21.832254,1 c 1.564877,0.019 3.133984,-0.039 4.696087,0.03 1.337355,0.2176 1.369672,1.5485 1.307782,2.5289 0,3.4802 0,6.9604 0,10.4405 -0.593482,0 -1.853297,0.051 -1.574041,-0.7443 0,-1.7939 0,-3.5879 0,-5.3819 -1.819355,0 -3.500873,0.063 -5.320227,0.063 0,2 -0.137836,3.9999 -0.137836,5.9999 -0.593484,0 -1.37087,0.1772 -1.091612,-0.618 0.022,-3.7274 -0.04415,-7.459 0.03331,-11.1839 0.140959,-0.6811 1.328946,-1.1471 2.086531,-1.1349 z m 9.278707,0 c 2.110651,0.02 4.225641,-0.04 6.333507,0.03 1.337355,0.2176 1.369671,1.5485 1.307783,2.5289 -0.08217,1.082 0.235101,2.259 -0.34808,3.2485 -1.007539,0.1172 -0.737406,1.4065 0.10929,1.5358 0.437586,1.3079 0.160533,2.7145 0.23879,4.0697 0.103444,1.3366 -1.439839,1.7277 -2.60117,1.5865 -1.680039,0 -3.360078,0 -5.04012,0 0,-4.3333 0,-8.6666 0,-12.9999 z m 12.553547,0 c 2.00129,0 4.347173,0 6.348462,0 0.0047,0.5437 0.193378,1.2558 -0.674625,1 -1.95835,0 -3.847782,0 -5.806133,0 0,1.8333 -0.206755,3.7298 -0.206755,5.5631 0,1.8333 0.206755,3.6035 0.206755,5.4368 2.183225,0 4.366451,-0.063 6.549676,-0.063 0.0047,0.5437 0.193377,1.2559 -0.674625,1 -1.885785,-0.019 -4.189389,0.1021 -6.07239,0.033 -1.337357,-0.2175 -1.369672,-1.5485 -1.307785,-2.5289 0.0219,-3.0803 -0.044,-6.1647 0.03332,-9.2425 0.140959,-0.6811 0.846516,-1.2102 1.604101,-1.198 z m -21.757794,1.2525 c -0.643246,0.5893 -0.620266,1.4142 -0.620266,2.2475 0,0.8333 0,1.6667 0,2.5 1.819354,0 3.156279,-0.1263 4.975634,-0.1263 0,-0.8334 0,-1.6667 0,-2.5 0,-0.8333 0.269336,-1.4444 -0.413511,-1.9949 -0.574314,-0.463 -1.285236,-0.4731 -2.074307,-0.4421 -0.789069,0.031 -1.86755,0.2315 -1.86755,0.3156 z m 10.295861,-0.2525 c 0,1.6667 0,3.3333 0,5 1.819355,0 3.638708,0 5.458064,0 0,-0.8333 0.206754,-1.6351 0.206754,-2.4684 0,-0.8333 -0.206754,-1.6983 -0.206754,-2.5316 -1.819356,0 -3.638709,0 -5.458064,0 z m -9.824514,1 c 1.194991,-0.3788 1.666336,-0.4736 2.930245,0.063 0,1 0,1.8737 0,2.8737 -1.091613,0 -1.838632,0.063 -2.930245,0.063 0,-1 0,-2 0,-3 z m 10.916127,0 c 1.091612,0 2.183225,0 3.274838,0 0,0.5 0.241214,1.0631 0.241214,1.5631 0,0.5 -0.241214,0.9369 -0.241214,1.4369 -1.091613,0 -2.183226,0 -3.274838,0 0,-1 0,-2 0,-3 z m -1.091613,5 c 0,1.6667 0,3.3333 0,4.9999 1.819355,0 3.638708,0 5.458064,0 0,-0.8333 0.206754,-1.6666 0.206754,-2.4999 0,-0.8333 -0.206754,-1.6667 -0.206754,-2.5 -1.819356,0 -3.638709,0 -5.458064,0 z m 1.091613,1 c 1.091612,0 2.183225,0 3.274838,0 0,0.5 0.310132,0.9369 0.310132,1.4369 0,0.4999 -0.310132,1.0631 -0.310132,1.563 -1.091613,0 -2.183226,0 -3.274838,0 0,-0.9999 0,-1.9999 0,-2.9999 z m 10.404433,6.8124 c -3.972303,3.1655 -7.985541,6.2885 -11.973627,9.4375 -1.628168,-1.5397 -3.100487,-2.8431 -4.740307,-4.3724 -1.175118,0.957 -4.106503,-0.5403 -5.305545,0.3916 1.386976,1.6447 5.988397,7.6568 8.82234,10.7474 0.287944,0.314 0.742735,0.5858 1.190091,0.5702 0.478413,-0.017 0.878789,-0.3874 1.218667,-0.6963 5.139867,-4.6711 12.643277,-12.4388 14.997427,-14.9057 -0.962259,-0.8994 -3.275466,-0.2478 -4.209046,-1.1723 z m 0.13853,0.8387 c 0.488952,0.4479 2.356271,0.1382 2.845223,0.5862 -4.46879,4.4062 -10.591622,9.9489 -15.060412,14.3551 -2.308304,-2.7187 -5.788225,-6.7002 -8.096531,-9.4189 0.659516,-0.5208 2.559564,0.3473 3.219081,-0.1736 1.628166,1.5398 3.238323,3.0958 4.878143,4.625 3.983756,-3.1756 8.215082,-6.8144 12.214496,-9.9738 z"
       id="path5078"
       inkscape:connector-curvature="0"
       sodipodi:nodetypes="ccccccccccccccccccccccccccccsccccccccccccccccccccccccccccccsccccccccccsccssscccccsccccccccccsccccccsccccsccccccccccccccccccc"
       inkscape:export-xdpi="66"
       inkscape:export-ydpi="66" />
  </g>
</svg>
