<?xml version="1.0" encoding="UTF-8" standalone="no"?>
<!-- Created with Inkscape (http://www.inkscape.org/) -->

<svg
   xmlns:dc="http://purl.org/dc/elements/1.1/"
   xmlns:cc="http://creativecommons.org/ns#"
   xmlns:rdf="http://www.w3.org/1999/02/22-rdf-syntax-ns#"
   xmlns:svg="http://www.w3.org/2000/svg"
   xmlns="http://www.w3.org/2000/svg"
   xmlns:sodipodi="http://sodipodi.sourceforge.net/DTD/sodipodi-0.dtd"
   xmlns:inkscape="http://www.inkscape.org/namespaces/inkscape"
   width="64"
   height="64"
   id="svg6288"
   version="1.1"
   inkscape:version="0.48.5 r10040"
   sodipodi:docname="split.svg">
  <title
     id="title3017">Spli</title>
  <defs
     id="defs6290" />
  <sodipodi:namedview
     id="base"
     pagecolor="#ffffff"
     bordercolor="#666666"
     borderopacity="1.0"
     inkscape:pageopacity="0.0"
     inkscape:pageshadow="2"
     inkscape:zoom="0.98994949"
     inkscape:cx="-614.65352"
     inkscape:cy="130.54731"
     inkscape:document-units="px"
     inkscape:current-layer="layer1"
     showgrid="false"
     inkscape:window-width="1920"
     inkscape:window-height="1138"
     inkscape:window-x="-8"
     inkscape:window-y="-8"
     inkscape:window-maximized="1" />
  <metadata
     id="metadata6293">
    <rdf:RDF>
      <cc:Work
         rdf:about="">
        <dc:format>image/svg+xml</dc:format>
        <dc:type
           rdf:resource="http://purl.org/dc/dcmitype/StillImage" />
        <dc:title>Spli</dc:title>
        <dc:creator>
          <cc:Agent>
            <dc:title>Nastya Bekassova</dc:title>
          </cc:Agent>
        </dc:creator>
        <dc:rights>
          <cc:Agent>
            <dc:title>Nastya Bekassova</dc:title>
          </cc:Agent>
        </dc:rights>
        <dc:description>More Air for YAGF icon set</dc:description>
        <dc:source>symmetrica.net/~bekassova/</dc:source>
        <cc:license
           rdf:resource="http://www.gnu.org/copyleft/gpl.html" />
      </cc:Work>
    </rdf:RDF>
  </metadata>
  <g
     inkscape:label="Layer 1"
     inkscape:groupmode="layer"
     id="layer1"
     transform="translate(0,-988.36218)">
    <path
       inkscape:connector-curvature="0"
       style="font-size:medium;font-style:normal;font-variant:normal;font-weight:normal;font-stretch:normal;text-indent:0;text-align:start;text-decoration:none;line-height:normal;letter-spacing:normal;word-spacing:normal;text-transform:none;direction:ltr;block-progression:tb;writing-mode:lr-tb;text-anchor:start;baseline-shift:baseline;color:#000000;fill:#000092;fill-opacity:1;fill-rule:nonzero;stroke:none;stroke-width:1;marker:none;visibility:visible;display:inline;overflow:visible;enable-background:accumulate;font-family:Sans;-inkscape-font-specification:Sans"
       d="m 19.335034,1005.5576 c -1.37468,0 -2.5,1.1242 -2.5,2.5 l 0,10 c 0,1.3747 1.12426,2.5 2.5,2.5 l 10,0 c 1.37499,0 2.5,-1.125 2.5,-2.5 l 0,-10 c 0,-1.375 -1.12501,-2.5 -2.5,-2.5 l -10,0 z m 18,0 c -1.37468,0 -2.5,1.1242 -2.5,2.5 l 0,10 c 0,1.375 1.12501,2.5 2.5,2.5 l 10,0 c 1.37499,0 2.5,-1.125 2.5,-2.5 l 0,-10 c 0,-1.375 -1.12501,-2.5 -2.5,-2.5 l -10,0 z m -18,1 10,0 c 0.83501,0 1.5,0.665 1.5,1.5 l 0,10 c 0,0.835 -0.66499,1.5 -1.5,1.5 l -10,0 c -0.83626,0 -1.5,-0.6647 -1.5,-1.5 l 0,-10 c 0,-0.8363 0.66468,-1.5 1.5,-1.5 z m 18,0 10,0 c 0.83501,0 1.5,0.665 1.5,1.5 l 0,10 c 0,0.835 -0.66499,1.5 -1.5,1.5 l -10,0 c -0.83501,0 -1.5,-0.665 -1.5,-1.5 l 0,-10 c 0,-0.8363 0.66468,-1.5 1.5,-1.5 z m -18,17 c -1.37498,0 -2.5,1.125 -2.5,2.5 l 0,10 c 0,1.3747 1.12426,2.5 2.5,2.5 l 10,0 c 1.37499,0 2.5,-1.125 2.5,-2.5 l 0,-10 c 0,-1.375 -1.12501,-2.5 -2.5,-2.5 l -10,0 z m 18,0 c -1.37499,0 -2.5,1.125 -2.5,2.5 l 0,10 c 0,1.375 1.12501,2.5 2.5,2.5 l 10,0 c 1.37499,0 2.5,-1.125 2.5,-2.5 l 0,-10 c 0,-1.375 -1.12501,-2.5 -2.5,-2.5 l -10,0 z m -18,1 10,0 c 0.83501,0 1.5,0.665 1.5,1.5 l 0,10 c 0,0.835 -0.66499,1.5 -1.5,1.5 l -10,0 c -0.83626,0 -1.5,-0.6647 -1.5,-1.5 l 0,-10 c 0,-0.835 0.66498,-1.5 1.5,-1.5 z m 18,0 10,0 c 0.83501,0 1.5,0.665 1.5,1.5 l 0,10 c 0,0.835 -0.66499,1.5 -1.5,1.5 l -10,0 c -0.83501,0 -1.5,-0.665 -1.5,-1.5 l 0,-10 c 0,-0.835 0.66499,-1.5 1.5,-1.5 z"
       id="path5223" />
  </g>
</svg>
