<?xml version="1.0" encoding="UTF-8" standalone="no"?>
<!-- Created with Inkscape (http://www.inkscape.org/) -->

<svg
   xmlns:dc="http://purl.org/dc/elements/1.1/"
   xmlns:cc="http://creativecommons.org/ns#"
   xmlns:rdf="http://www.w3.org/1999/02/22-rdf-syntax-ns#"
   xmlns:svg="http://www.w3.org/2000/svg"
   xmlns="http://www.w3.org/2000/svg"
   xmlns:sodipodi="http://sodipodi.sourceforge.net/DTD/sodipodi-0.dtd"
   xmlns:inkscape="http://www.inkscape.org/namespaces/inkscape"
   width="64"
   height="64"
   id="svg6288"
   version="1.1"
   inkscape:version="0.48.5 r10040"
   sodipodi:docname="ZoomIn.svg">
  <title
     id="title3803">ZoomIn</title>
  <defs
     id="defs6290" />
  <sodipodi:namedview
     id="base"
     pagecolor="#ffffff"
     bordercolor="#666666"
     borderopacity="1.0"
     inkscape:pageopacity="0.0"
     inkscape:pageshadow="2"
     inkscape:zoom="8"
     inkscape:cx="73.484542"
     inkscape:cy="4.560083"
     inkscape:document-units="px"
     inkscape:current-layer="layer1"
     showgrid="false"
     inkscape:window-width="1920"
     inkscape:window-height="1138"
     inkscape:window-x="-8"
     inkscape:window-y="-8"
     inkscape:window-maximized="1">
    <inkscape:grid
       type="xygrid"
       id="grid3010" />
  </sodipodi:namedview>
  <metadata
     id="metadata6293">
    <rdf:RDF>
      <cc:Work
         rdf:about="">
        <dc:format>image/svg+xml</dc:format>
        <dc:type
           rdf:resource="http://purl.org/dc/dcmitype/StillImage" />
        <dc:title>ZoomIn</dc:title>
        <dc:creator>
          <cc:Agent>
            <dc:title>Nastya Bekassova</dc:title>
          </cc:Agent>
        </dc:creator>
        <dc:rights>
          <cc:Agent>
            <dc:title>Nastya Bekassova</dc:title>
          </cc:Agent>
        </dc:rights>
        <dc:description>More Air for YAGF icon set</dc:description>
        <dc:source>symmetrica.net/~bekassova/</dc:source>
        <cc:license
           rdf:resource="http://www.gnu.org/copyleft/gpl.html" />
      </cc:Work>
    </rdf:RDF>
  </metadata>
  <g
     inkscape:label="Layer 1"
     inkscape:groupmode="layer"
     id="layer1"
     transform="translate(0,-988.36218)">
    <path
       sodipodi:type="arc"
       style="fill:#ffffff;fill-opacity:0;stroke:#000090;stroke-opacity:1"
       id="path3790"
       sodipodi:cx="22.1875"
       sodipodi:cy="52.5625"
       sodipodi:rx="9.4375"
       sodipodi:ry="8.9375"
       d="m 31.625,52.5625 c 0,4.936045 -4.225313,8.9375 -9.4375,8.9375 -5.212187,0 -9.4375,-4.001455 -9.4375,-8.9375 0,-4.936045 4.225313,-8.9375 9.4375,-8.9375 5.212187,0 9.4375,4.001455 9.4375,8.9375 z"
       transform="matrix(1.4001504,0,0,1.490822,-4.3316691,936.15638)" />
    <path
       sodipodi:nodetypes="cccccccccccccccccccccccccc"
       inkscape:connector-curvature="0"
       id="path4314"
       d="m 24,1005.3622 c 0,2 0,4 0,6 -1.99999,0 -4,0 -5.99999,0 0,2.6666 0,3.3333 0,6 1.99999,0 4,0 5.99999,0 0,2 0,4 0,6 2.66667,0 3.33334,0 6,0 0.022,-2.0554 -0.005,-3.9445 0,-6 2.03126,0 3.96875,0 6.00001,0 0.0697,-2.7804 0,-4 0,-6 -1.94302,0 -4.05699,0 -6.00001,0 -0.001,-2 0.0213,-4.0001 0,-6 -2.66666,0 -3.33333,0 -6,0 z m 1,1 c 2,0 2,0 4,0 0,2 0,4 0,6 2,0 4,0 6,0 0,2 0,2 0,4 -2,0 -4,0 -6,0 0,2 0,4 0,6 -2,0 -2,0 -4,0 0,-2 0,-4 0,-6 -2,0 -4,0 -6,0 0,-2 0,-2 0,-4 2.00001,0 4,0 6,0 0,-2 10e-6,-4 0,-6 z"
       style="font-size:medium;font-style:normal;font-variant:normal;font-weight:normal;font-stretch:normal;text-indent:0;text-align:start;text-decoration:none;line-height:normal;letter-spacing:normal;word-spacing:normal;text-transform:none;direction:ltr;block-progression:tb;writing-mode:lr-tb;text-anchor:start;baseline-shift:baseline;color:#000000;fill:#000092;fill-opacity:1;fill-rule:nonzero;stroke:none;stroke-width:1;marker:none;visibility:visible;display:inline;overflow:visible;enable-background:accumulate;font-family:Sans;-inkscape-font-specification:Sans" />
  </g>
</svg>
